<svg width="30" height="30" viewBox="0 0 30 30" fill="none" xmlns="http://www.w3.org/2000/svg">
<path d="M1 15L0 15L1 15ZM6.25 15L5.25 15L6.25 15ZM15 23.75L15 24.75L15 23.75ZM23.75 15L24.75 15L23.75 15ZM15 0C11.0218 0 7.20644 1.58035 4.3934 4.3934L5.80761 5.80761C8.24558 3.36964 11.5522 2 15 2V0ZM4.3934 4.3934C1.58035 7.20644 0 11.0218 0 15L2 15C2 11.5522 3.36964 8.24558 5.80761 5.80761L4.3934 4.3934ZM0 15C0 18.9782 1.58035 22.7936 4.3934 25.6066L5.80761 24.1924C3.36964 21.7544 2 18.4478 2 15L0 15ZM4.3934 25.6066C7.20644 28.4196 11.0218 30 15 30V28C11.5522 28 8.24558 26.6304 5.80761 24.1924L4.3934 25.6066ZM15 30C18.9782 30 22.7936 28.4196 25.6066 25.6066L24.1924 24.1924C21.7544 26.6304 18.4478 28 15 28V30ZM25.6066 25.6066C28.4196 22.7936 30 18.9782 30 15H28C28 18.4478 26.6304 21.7544 24.1924 24.1924L25.6066 25.6066ZM30 15C30 11.0218 28.4196 7.20644 25.6066 4.3934L24.1924 5.80761C26.6304 8.24558 28 11.5522 28 15H30ZM25.6066 4.3934C22.7936 1.58035 18.9782 0 15 0V2C18.4478 2 21.7544 3.36964 24.1924 5.80761L25.6066 4.3934ZM15 5.25C12.4141 5.25 9.93419 6.27723 8.10571 8.10571L9.51992 9.51992C10.9733 8.06652 12.9446 7.25 15 7.25L15 5.25ZM8.10571 8.10571C6.27723 9.93419 5.25 12.4141 5.25 15L7.25 15C7.25 12.9446 8.06652 10.9733 9.51992 9.51992L8.10571 8.10571ZM5.25 15C5.25 17.5859 6.27723 20.0658 8.10571 21.8943L9.51992 20.4801C8.06652 19.0267 7.25 17.0554 7.25 15L5.25 15ZM8.10571 21.8943C9.93419 23.7228 12.4141 24.75 15 24.75L15 22.75C12.9446 22.75 10.9733 21.9335 9.51992 20.4801L8.10571 21.8943ZM15 24.75C17.5859 24.75 20.0658 23.7228 21.8943 21.8943L20.4801 20.4801C19.0267 21.9335 17.0554 22.75 15 22.75L15 24.75ZM21.8943 21.8943C23.7228 20.0658 24.75 17.5859 24.75 15L22.75 15C22.75 17.0554 21.9335 19.0267 20.4801 20.4801L21.8943 21.8943ZM24.75 15C24.75 12.4141 23.7228 9.93419 21.8943 8.10571L20.4801 9.51992C21.9335 10.9733 22.75 12.9446 22.75 15L24.75 15ZM21.8943 8.10571C20.0658 6.27723 17.5859 5.25 15 5.25L15 7.25C17.0554 7.25 19.0267 8.06652 20.4801 9.51992L21.8943 8.10571ZM9.1253 7.21913C6.03301 9.69297 4.26189 12.6989 3.94161 16.222C3.62465 19.7084 4.74132 23.5629 7.13176 27.7461L8.86824 26.7539C6.59201 22.7705 5.66701 19.3332 5.93339 16.403C6.19645 13.5094 7.63366 10.9737 10.3747 8.78087L9.1253 7.21913ZM20.8747 22.7809C23.9628 20.3104 25.7374 17.3374 26.0583 13.8417C26.3758 10.3839 25.2571 6.55992 22.8682 2.37946L21.1318 3.37174C23.4096 7.35796 24.3326 10.7628 24.0667 13.6589C23.8043 16.5171 22.3706 19.0229 19.6253 21.2191L20.8747 22.7809Z" fill="url(#paint0_linear_739_23289)"/>
<defs>
<linearGradient id="paint0_linear_739_23289" x1="1.79033" y1="1" x2="28.9667" y2="0.0491642" gradientUnits="userSpaceOnUse">
<stop stop-color="#5669C4"/>
<stop offset="0.348958" stop-color="#F36F68"/>
<stop offset="0.682292" stop-color="#D5C8EB"/>
<stop offset="1" stop-color="#14CB8F"/>
</linearGradient>
</defs>
</svg>
